<?xml version="1.0" encoding="UTF-8" standalone="no"?><svg xmlns="http://www.w3.org/2000/svg" xmlns:xlink="http://www.w3.org/1999/xlink" clip-rule="evenodd" stroke-miterlimit="10" viewBox="0 0 654 460"><desc>SVG generated by Keynote</desc><defs></defs><g transform="matrix(1.00, 0.00, -0.00, -1.00, 0.0, 460.0)"><path d="M 55.4 325.1 L 520.4 325.1 " fill="none" stroke="#B6B6B6" stroke-width="1.00" stroke-linejoin="round" transform="matrix(1.00, 0.00, 0.00, -1.00, 1.6, 458.6)"></path><path d="M 55.4 223.1 L 520.4 223.1 " fill="none" stroke="#B6B6B6" stroke-width="1.00" stroke-linejoin="round" transform="matrix(1.00, 0.00, 0.00, -1.00, 1.6, 458.6)"></path><path d="M 55.4 121.1 L 520.4 121.1 " fill="none" stroke="#B6B6B6" stroke-width="1.00" stroke-linejoin="round" transform="matrix(1.00, 0.00, 0.00, -1.00, 1.6, 458.6)"></path><path d="M 55.4 19.1 L 520.4 19.1 " fill="none" stroke="#B6B6B6" stroke-width="1.00" stroke-linejoin="round" transform="matrix(1.00, 0.00, 0.00, -1.00, 1.6, 458.6)"></path><path d="M 54.9 427.1 L 54.9 19.1 M 54.9 427.1 L 52.9 427.1 M 54.9 325.1 L 52.9 325.1 M 54.9 223.1 L 52.9 223.1 M 54.9 121.1 L 52.9 121.1 M 54.9 19.1 L 52.9 19.1 " fill="none" stroke="#B6B6B6" stroke-width="0.75" stroke-linecap="square" stroke-linejoin="round" transform="matrix(1.00, 0.00, 0.00, -1.00, 1.6, 458.6)"></path><g><clipPath id="clip0x600002ea4980"><path d="M 17.2 21.1 L 40.5 21.1 L 40.5 42.1 L 17.2 42.1 Z M 17.2 21.1 "></path></clipPath><g clip-path="url(#clip0x600002ea4980)"><text xml:space="preserve" font-family="Calibri,Calibri" font-size="16.0" fill="#D6D6D6" transform="matrix(1.00, 0.00, -0.00, -1.00, 18.7, 26.4)">0</text><text xml:space="preserve" font-family="Calibri,Calibri" font-size="16.0" fill="#D6D6D6" transform="matrix(1.00, 0.00, -0.00, -1.00, 26.8, 26.4)">.</text><text xml:space="preserve" font-family="Calibri,Calibri" font-size="16.0" fill="#D6D6D6" transform="matrix(1.00, 0.00, -0.00, -1.00, 30.9, 26.4)">0</text></g></g><g><clipPath id="clip0x6080022a0c60"><path d="M 1.0 123.1 L 40.5 123.1 L 40.5 144.1 L 1.0 144.1 Z M 1.0 123.1 "></path></clipPath><g clip-path="url(#clip0x6080022a0c60)"><text xml:space="preserve" font-family="Calibri,Calibri" font-size="16.0" fill="#D6D6D6" transform="matrix(1.00, 0.00, -0.00, -1.00, 2.5, 128.4)">2</text><text xml:space="preserve" font-family="Calibri,Calibri" font-size="16.0" fill="#D6D6D6" transform="matrix(1.00, 0.00, -0.00, -1.00, 10.6, 128.4)">2</text><text xml:space="preserve" font-family="Calibri,Calibri" font-size="16.0" fill="#D6D6D6" transform="matrix(1.00, 0.00, -0.00, -1.00, 18.7, 128.4)">5</text><text xml:space="preserve" font-family="Calibri,Calibri" font-size="16.0" fill="#D6D6D6" transform="matrix(1.00, 0.00, -0.00, -1.00, 26.8, 128.4)">.</text><text xml:space="preserve" font-family="Calibri,Calibri" font-size="16.0" fill="#D6D6D6" transform="matrix(1.00, 0.00, -0.00, -1.00, 30.9, 128.4)">0</text></g></g><g><clipPath id="clip0x6080016a8160"><path d="M 1.0 225.1 L 40.5 225.1 L 40.5 246.1 L 1.0 246.1 Z M 1.0 225.1 "></path></clipPath><g clip-path="url(#clip0x6080016a8160)"><text xml:space="preserve" font-family="Calibri,Calibri" font-size="16.0" fill="#D6D6D6" transform="matrix(1.00, 0.00, -0.00, -1.00, 2.5, 230.4)">4</text><text xml:space="preserve" font-family="Calibri,Calibri" font-size="16.0" fill="#D6D6D6" transform="matrix(1.00, 0.00, -0.00, -1.00, 10.6, 230.4)">5</text><text xml:space="preserve" font-family="Calibri,Calibri" font-size="16.0" fill="#D6D6D6" transform="matrix(1.00, 0.00, -0.00, -1.00, 18.7, 230.4)">0</text><text xml:space="preserve" font-family="Calibri,Calibri" font-size="16.0" fill="#D6D6D6" transform="matrix(1.00, 0.00, -0.00, -1.00, 26.8, 230.4)">.</text><text xml:space="preserve" font-family="Calibri,Calibri" font-size="16.0" fill="#D6D6D6" transform="matrix(1.00, 0.00, -0.00, -1.00, 30.9, 230.4)">0</text></g></g><g><clipPath id="clip0x6080022a01e0"><path d="M 1.0 327.1 L 40.5 327.1 L 40.5 348.1 L 1.0 348.1 Z M 1.0 327.1 "></path></clipPath><g clip-path="url(#clip0x6080022a01e0)"><text xml:space="preserve" font-family="Calibri,Calibri" font-size="16.0" fill="#D6D6D6" transform="matrix(1.00, 0.00, -0.00, -1.00, 2.5, 332.4)">6</text><text xml:space="preserve" font-family="Calibri,Calibri" font-size="16.0" fill="#D6D6D6" transform="matrix(1.00, 0.00, -0.00, -1.00, 10.6, 332.4)">7</text><text xml:space="preserve" font-family="Calibri,Calibri" font-size="16.0" fill="#D6D6D6" transform="matrix(1.00, 0.00, -0.00, -1.00, 18.7, 332.4)">5</text><text xml:space="preserve" font-family="Calibri,Calibri" font-size="16.0" fill="#D6D6D6" transform="matrix(1.00, 0.00, -0.00, -1.00, 26.8, 332.4)">.</text><text xml:space="preserve" font-family="Calibri,Calibri" font-size="16.0" fill="#D6D6D6" transform="matrix(1.00, 0.00, -0.00, -1.00, 30.9, 332.4)">0</text></g></g><g><clipPath id="clip0x6080022a05a0"><path d="M 1.0 429.1 L 40.5 429.1 L 40.5 450.1 L 1.0 450.1 Z M 1.0 429.1 "></path></clipPath><g clip-path="url(#clip0x6080022a05a0)"><text xml:space="preserve" font-family="Calibri,Calibri" font-size="16.0" fill="#D6D6D6" transform="matrix(1.00, 0.00, -0.00, -1.00, 2.5, 434.4)">9</text><text xml:space="preserve" font-family="Calibri,Calibri" font-size="16.0" fill="#D6D6D6" transform="matrix(1.00, 0.00, -0.00, -1.00, 10.6, 434.4)">0</text><text xml:space="preserve" font-family="Calibri,Calibri" font-size="16.0" fill="#D6D6D6" transform="matrix(1.00, 0.00, -0.00, -1.00, 18.7, 434.4)">0</text><text xml:space="preserve" font-family="Calibri,Calibri" font-size="16.0" fill="#D6D6D6" transform="matrix(1.00, 0.00, -0.00, -1.00, 26.8, 434.4)">.</text><text xml:space="preserve" font-family="Calibri,Calibri" font-size="16.0" fill="#D6D6D6" transform="matrix(1.00, 0.00, -0.00, -1.00, 30.9, 434.4)">0</text></g></g><path d="M 54.9 427.1 L 519.9 427.1 M 54.9 427.1 L 54.9 429.1 M 171.9 427.1 L 171.9 429.1 M 287.9 427.1 L 287.9 429.1 M 403.9 427.1 L 403.9 429.1 M 519.9 427.1 L 519.9 429.1 " fill="none" stroke="#B6B6B6" stroke-width="0.75" stroke-linecap="square" stroke-linejoin="round" transform="matrix(1.00, 0.00, 0.00, -1.00, 1.6, 458.6)"></path><g><clipPath id="clip0x6080022a1080"><path d="M 83.7 1.3 L 146.1 1.3 L 146.1 22.3 L 83.7 22.3 Z M 83.7 1.3 "></path></clipPath><g clip-path="url(#clip0x6080022a1080)"><text xml:space="preserve" font-family="Calibri,Calibri" font-size="16.0" fill="#D6D6D6" transform="matrix(1.00, 0.00, -0.00, -1.00, 85.2, 6.6)">G</text><text xml:space="preserve" font-family="Calibri,Calibri" font-size="16.0" fill="#D6D6D6" transform="matrix(1.00, 0.00, -0.00, -1.00, 95.3, 6.6)">e</text><text xml:space="preserve" font-family="Calibri,Calibri" font-size="16.0" fill="#D6D6D6" transform="matrix(1.00, 0.00, -0.00, -1.00, 103.2, 6.6)">r</text><text xml:space="preserve" font-family="Calibri,Calibri" font-size="16.0" fill="#D6D6D6" transform="matrix(1.00, 0.00, -0.00, -1.00, 108.8, 6.6)">m</text><text xml:space="preserve" font-family="Calibri,Calibri" font-size="16.0" fill="#D6D6D6" transform="matrix(1.00, 0.00, -0.00, -1.00, 121.6, 6.6)">a</text><text xml:space="preserve" font-family="Calibri,Calibri" font-size="16.0" fill="#D6D6D6" transform="matrix(1.00, 0.00, -0.00, -1.00, 129.2, 6.6)">n</text><text xml:space="preserve" font-family="Calibri,Calibri" font-size="16.0" fill="#D6D6D6" transform="matrix(1.00, 0.00, -0.00, -1.00, 137.3, 6.6)">y</text></g></g><g><clipPath id="clip0x6080022a1500"><path d="M 207.9 1.3 L 254.3 1.3 L 254.3 22.3 L 207.9 22.3 Z M 207.9 1.3 "></path></clipPath><g clip-path="url(#clip0x6080022a1500)"><text xml:space="preserve" font-family="Calibri,Calibri" font-size="16.0" fill="#D6D6D6" transform="matrix(1.00, 0.00, -0.00, -1.00, 209.4, 6.6)">F</text><text xml:space="preserve" font-family="Calibri,Calibri" font-size="16.0" fill="#D6D6D6" transform="matrix(1.00, 0.00, -0.00, -1.00, 216.8, 6.6)">r</text><text xml:space="preserve" font-family="Calibri,Calibri" font-size="16.0" fill="#D6D6D6" transform="matrix(1.00, 0.00, -0.00, -1.00, 222.0, 6.6)">a</text><text xml:space="preserve" font-family="Calibri,Calibri" font-size="16.0" fill="#D6D6D6" transform="matrix(1.00, 0.00, -0.00, -1.00, 229.7, 6.6)">n</text><text xml:space="preserve" font-family="Calibri,Calibri" font-size="16.0" fill="#D6D6D6" transform="matrix(1.00, 0.00, -0.00, -1.00, 238.1, 6.6)">c</text><text xml:space="preserve" font-family="Calibri,Calibri" font-size="16.0" fill="#D6D6D6" transform="matrix(1.00, 0.00, -0.00, -1.00, 244.9, 6.6)">e</text></g></g><g><clipPath id="clip0x6080022a1920"><path d="M 332.0 1.3 L 362.8 1.3 L 362.8 22.3 L 332.0 22.3 Z M 332.0 1.3 "></path></clipPath><g clip-path="url(#clip0x6080022a1920)"><text xml:space="preserve" font-family="Calibri,Calibri" font-size="16.0" fill="#D6D6D6" transform="matrix(1.00, 0.00, -0.00, -1.00, 333.5, 6.6)">I</text><text xml:space="preserve" font-family="Calibri,Calibri" font-size="16.0" fill="#D6D6D6" transform="matrix(1.00, 0.00, -0.00, -1.00, 337.5, 6.6)">t</text><text xml:space="preserve" font-family="Calibri,Calibri" font-size="16.0" fill="#D6D6D6" transform="matrix(1.00, 0.00, -0.00, -1.00, 342.7, 6.6)">a</text><text xml:space="preserve" font-family="Calibri,Calibri" font-size="16.0" fill="#D6D6D6" transform="matrix(1.00, 0.00, -0.00, -1.00, 350.4, 6.6)">l</text><text xml:space="preserve" font-family="Calibri,Calibri" font-size="16.0" fill="#D6D6D6" transform="matrix(1.00, 0.00, -0.00, -1.00, 354.0, 6.6)">y</text></g></g><g><clipPath id="clip0x6080022a1ce0"><path d="M 436.5 1.3 L 490.8 1.3 L 490.8 22.3 L 436.5 22.3 Z M 436.5 1.3 "></path></clipPath><g clip-path="url(#clip0x6080022a1ce0)"><text xml:space="preserve" font-family="Calibri,Calibri" font-size="16.0" fill="#D6D6D6" transform="matrix(1.00, 0.00, -0.00, -1.00, 438.0, 6.6)">S</text><text xml:space="preserve" font-family="Calibri,Calibri" font-size="16.0" fill="#D6D6D6" transform="matrix(1.00, 0.00, -0.00, -1.00, 445.2, 6.6)">w</text><text xml:space="preserve" font-family="Calibri,Calibri" font-size="16.0" fill="#D6D6D6" transform="matrix(1.00, 0.00, -0.00, -1.00, 456.5, 6.6)">e</text><text xml:space="preserve" font-family="Calibri,Calibri" font-size="16.0" fill="#D6D6D6" transform="matrix(1.00, 0.00, -0.00, -1.00, 464.5, 6.6)">d</text><text xml:space="preserve" font-family="Calibri,Calibri" font-size="16.0" fill="#D6D6D6" transform="matrix(1.00, 0.00, -0.00, -1.00, 472.9, 6.6)">e</text><text xml:space="preserve" font-family="Calibri,Calibri" font-size="16.0" fill="#D6D6D6" transform="matrix(1.00, 0.00, -0.00, -1.00, 480.8, 6.6)">n</text></g></g><g><clipPath id="clip0x6080022a2100"><path d="M 56.8 31.6 L 521.8 31.6 L 521.8 439.6 L 56.8 439.6 Z M 56.8 31.6 "></path></clipPath><g clip-path="url(#clip0x6080022a2100)"><path d="M 92.0 417.0 L 138.0 417.0 L 138.0 272.0 L 92.0 272.0 Z M 92.0 417.0 " fill="#9BCC4F"></path></g></g><g><clipPath id="clip0x6080022a2340"><path d="M 56.8 31.6 L 521.8 31.6 L 521.8 439.6 L 56.8 439.6 Z M 56.8 31.6 "></path></clipPath><g clip-path="url(#clip0x6080022a2340)"><path d="M 208.0 337.0 L 254.0 337.0 L 254.0 241.0 L 208.0 241.0 Z M 208.0 337.0 " fill="#9BCC4F"></path></g></g><g><clipPath id="clip0x6080022a2580"><path d="M 56.8 31.6 L 521.8 31.6 L 521.8 439.6 L 56.8 439.6 Z M 56.8 31.6 "></path></clipPath><g clip-path="url(#clip0x6080022a2580)"><path d="M 324.0 268.0 L 371.0 268.0 L 371.0 189.0 L 324.0 189.0 Z M 324.0 268.0 " fill="#9BCC4F"></path></g></g><g><clipPath id="clip0x6080022a27c0"><path d="M 56.8 31.6 L 521.8 31.6 L 521.8 439.6 L 56.8 439.6 Z M 56.8 31.6 "></path></clipPath><g clip-path="url(#clip0x6080022a27c0)"><path d="M 440.0 243.0 L 487.0 243.0 L 487.0 169.0 L 440.0 169.0 Z M 440.0 243.0 " fill="#9BCC4F"></path></g></g><g><clipPath id="clip0x6080022a2a00"><path d="M 56.8 31.6 L 521.8 31.6 L 521.8 439.6 L 56.8 439.6 Z M 56.8 31.6 "></path></clipPath><g clip-path="url(#clip0x6080022a2a00)"><path d="M 92.0 272.0 L 138.0 272.0 L 138.0 144.0 L 92.0 144.0 Z M 92.0 272.0 " fill="#3992C4"></path></g></g><g><clipPath id="clip0x6080022a2c40"><path d="M 56.8 31.6 L 521.8 31.6 L 521.8 439.6 L 56.8 439.6 Z M 56.8 31.6 "></path></clipPath><g clip-path="url(#clip0x6080022a2c40)"><path d="M 208.0 241.0 L 254.0 241.0 L 254.0 125.0 L 208.0 125.0 Z M 208.0 241.0 " fill="#3992C4"></path></g></g><g><clipPath id="clip0x6080022a2e80"><path d="M 56.8 31.6 L 521.8 31.6 L 521.8 439.6 L 56.8 439.6 Z M 56.8 31.6 "></path></clipPath><g clip-path="url(#clip0x6080022a2e80)"><path d="M 324.0 189.0 L 371.0 189.0 L 371.0 118.0 L 324.0 118.0 Z M 324.0 189.0 " fill="#3992C4"></path></g></g><g><clipPath id="clip0x6080022a30c0"><path d="M 56.8 31.6 L 521.8 31.6 L 521.8 439.6 L 56.8 439.6 Z M 56.8 31.6 "></path></clipPath><g clip-path="url(#clip0x6080022a30c0)"><path d="M 440.0 169.0 L 487.0 169.0 L 487.0 96.0 L 440.0 96.0 Z M 440.0 169.0 " fill="#3992C4"></path></g></g><g><clipPath id="clip0x6080022a3300"><path d="M 56.8 31.6 L 521.8 31.6 L 521.8 439.6 L 56.8 439.6 Z M 56.8 31.6 "></path></clipPath><g clip-path="url(#clip0x6080022a3300)"><path d="M 92.0 144.0 L 138.0 144.0 L 138.0 32.0 L 92.0 32.0 Z M 92.0 144.0 " fill="#4BB8F7"></path></g></g><g><clipPath id="clip0x6080022a3540"><path d="M 56.8 31.6 L 521.8 31.6 L 521.8 439.6 L 56.8 439.6 Z M 56.8 31.6 "></path></clipPath><g clip-path="url(#clip0x6080022a3540)"><path d="M 208.0 125.0 L 254.0 125.0 L 254.0 32.0 L 208.0 32.0 Z M 208.0 125.0 " fill="#4BB8F7"></path></g></g><g><clipPath id="clip0x6080022a3780"><path d="M 56.8 31.6 L 521.8 31.6 L 521.8 439.6 L 56.8 439.6 Z M 56.8 31.6 "></path></clipPath><g clip-path="url(#clip0x6080022a3780)"><path d="M 324.0 118.0 L 371.0 118.0 L 371.0 32.0 L 324.0 32.0 Z M 324.0 118.0 " fill="#4BB8F7"></path></g></g><g><clipPath id="clip0x6080022a39c0"><path d="M 56.8 31.6 L 521.8 31.6 L 521.8 439.6 L 56.8 439.6 Z M 56.8 31.6 "></path></clipPath><g clip-path="url(#clip0x6080022a39c0)"><path d="M 440.0 96.0 L 487.0 96.0 L 487.0 32.0 L 440.0 32.0 Z M 440.0 96.0 " fill="#4BB8F7"></path></g></g><path d="M 566.0 239.0 L 581.0 239.0 L 581.0 224.0 L 566.0 224.0 Z M 566.0 239.0 " fill="#4BB8F7"></path><text xml:space="preserve" font-family="Calibri,Calibri" font-size="16.0" fill="#CACACA" transform="matrix(1.00, 0.00, -0.00, -1.00, 589.0, 226.3)">G</text><text xml:space="preserve" font-family="Calibri,Calibri" font-size="16.0" fill="#CACACA" transform="matrix(1.00, 0.00, -0.00, -1.00, 599.1, 226.3)">o</text><text xml:space="preserve" font-family="Calibri,Calibri" font-size="16.0" fill="#CACACA" transform="matrix(1.00, 0.00, -0.00, -1.00, 607.5, 226.3)">l</text><text xml:space="preserve" font-family="Calibri,Calibri" font-size="16.0" fill="#CACACA" transform="matrix(1.00, 0.00, -0.00, -1.00, 611.2, 226.3)">d</text><path d="M 566.0 258.0 L 581.0 258.0 L 581.0 243.0 L 566.0 243.0 Z M 566.0 258.0 " fill="#3992C4"></path><text xml:space="preserve" font-family="Calibri,Calibri" font-size="16.0" fill="#CACACA" transform="matrix(1.00, 0.00, -0.00, -1.00, 589.0, 245.3)">S</text><text xml:space="preserve" font-family="Calibri,Calibri" font-size="16.0" fill="#CACACA" transform="matrix(1.00, 0.00, -0.00, -1.00, 596.4, 245.3)">i</text><text xml:space="preserve" font-family="Calibri,Calibri" font-size="16.0" fill="#CACACA" transform="matrix(1.00, 0.00, -0.00, -1.00, 600.1, 245.3)">l</text><text xml:space="preserve" font-family="Calibri,Calibri" font-size="16.0" fill="#CACACA" transform="matrix(1.00, 0.00, -0.00, -1.00, 603.7, 245.3)">v</text><text xml:space="preserve" font-family="Calibri,Calibri" font-size="16.0" fill="#CACACA" transform="matrix(1.00, 0.00, -0.00, -1.00, 610.8, 245.3)">e</text><text xml:space="preserve" font-family="Calibri,Calibri" font-size="16.0" fill="#CACACA" transform="matrix(1.00, 0.00, -0.00, -1.00, 618.7, 245.3)">r</text><path d="M 566.0 277.0 L 581.0 277.0 L 581.0 262.0 L 566.0 262.0 Z M 566.0 277.0 " fill="#9BCC4F"></path><text xml:space="preserve" font-family="Calibri,Calibri" font-size="16.0" fill="#CACACA" transform="matrix(1.00, 0.00, -0.00, -1.00, 589.0, 264.3)">B</text><text xml:space="preserve" font-family="Calibri,Calibri" font-size="16.0" fill="#CACACA" transform="matrix(1.00, 0.00, -0.00, -1.00, 597.7, 264.3)">r</text><text xml:space="preserve" font-family="Calibri,Calibri" font-size="16.0" fill="#CACACA" transform="matrix(1.00, 0.00, -0.00, -1.00, 603.0, 264.3)">o</text><text xml:space="preserve" font-family="Calibri,Calibri" font-size="16.0" fill="#CACACA" transform="matrix(1.00, 0.00, -0.00, -1.00, 611.5, 264.3)">n</text><text xml:space="preserve" font-family="Calibri,Calibri" font-size="16.0" fill="#CACACA" transform="matrix(1.00, 0.00, -0.00, -1.00, 619.9, 264.3)">z</text><text xml:space="preserve" font-family="Calibri,Calibri" font-size="16.0" fill="#CACACA" transform="matrix(1.00, 0.00, -0.00, -1.00, 625.9, 264.3)">e</text></g></svg>