<?xml version="1.0" encoding="UTF-8" standalone="no"?><svg xmlns="http://www.w3.org/2000/svg" xmlns:xlink="http://www.w3.org/1999/xlink" clip-rule="evenodd" stroke-miterlimit="10" viewBox="0 0 494 335"><desc>SVG generated by Keynote</desc><defs></defs><g transform="matrix(1.00, 0.00, -0.00, -1.00, 0.0, 335.0)"><image xlink:href="../../9C639F64-C9C5-4635-97CF-9807CB814B2C/assets/1BC49180499F5A94E2B392F358FBA16C.png" width="80.00" height="80.00" transform="matrix(0.25, 0.00, -0.00, -0.25, 0.3, 325.9)"></image><text xml:space="preserve" font-family="Helvetica-Light,Helvetica" font-size="40.0" fill="#919191" transform="matrix(1.00, 0.00, -0.00, -1.00, 38.8, 305.1)">F</text><text xml:space="preserve" font-family="Helvetica-Light,Helvetica" font-size="40.0" fill="#919191" transform="matrix(1.00, 0.00, -0.00, -1.00, 61.0, 305.1)">i</text><text xml:space="preserve" font-family="Helvetica-Light,Helvetica" font-size="40.0" fill="#919191" transform="matrix(1.00, 0.00, -0.00, -1.00, 69.9, 305.1)">r</text><text xml:space="preserve" font-family="Helvetica-Light,Helvetica" font-size="40.0" fill="#919191" transform="matrix(1.00, 0.00, -0.00, -1.00, 83.2, 305.1)">s</text><text xml:space="preserve" font-family="Helvetica-Light,Helvetica" font-size="40.0" fill="#919191" transform="matrix(1.00, 0.00, -0.00, -1.00, 103.2, 305.1)">t</text><text xml:space="preserve" font-family="Helvetica-Light,Helvetica" font-size="40.0" fill="#919191" transform="matrix(1.00, 0.00, -0.00, -1.00, 114.3, 305.1)"> </text><text xml:space="preserve" font-family="Helvetica-Light,Helvetica" font-size="40.0" fill="#919191" transform="matrix(1.00, 0.00, -0.00, -1.00, 125.5, 305.1)">c</text><text xml:space="preserve" font-family="Helvetica-Light,Helvetica" font-size="40.0" fill="#919191" transform="matrix(1.00, 0.00, -0.00, -1.00, 147.7, 305.1)">o</text><text xml:space="preserve" font-family="Helvetica-Light,Helvetica" font-size="40.0" fill="#919191" transform="matrix(1.00, 0.00, -0.00, -1.00, 169.9, 305.1)">l</text><text xml:space="preserve" font-family="Helvetica-Light,Helvetica" font-size="40.0" fill="#919191" transform="matrix(1.00, 0.00, -0.00, -1.00, 178.8, 305.1)">o</text><text xml:space="preserve" font-family="Helvetica-Light,Helvetica" font-size="40.0" fill="#919191" transform="matrix(1.00, 0.00, -0.00, -1.00, 201.1, 305.1)">r</text><text xml:space="preserve" font-family="Helvetica-Light,Helvetica" font-size="40.0" fill="#919191" transform="matrix(1.00, 0.00, -0.00, -1.00, 214.4, 305.1)"> </text><text xml:space="preserve" font-family="Helvetica-Light,Helvetica" font-size="40.0" fill="#919191" transform="matrix(1.00, 0.00, -0.00, -1.00, 225.5, 305.1)">n</text><text xml:space="preserve" font-family="Helvetica-Light,Helvetica" font-size="40.0" fill="#919191" transform="matrix(1.00, 0.00, -0.00, -1.00, 247.7, 305.1)">e</text><text xml:space="preserve" font-family="Helvetica-Light,Helvetica" font-size="40.0" fill="#919191" transform="matrix(1.00, 0.00, -0.00, -1.00, 270.0, 305.1)">w</text><text xml:space="preserve" font-family="Helvetica-Light,Helvetica" font-size="40.0" fill="#919191" transform="matrix(1.00, 0.00, -0.00, -1.00, 298.9, 305.1)">s</text><text xml:space="preserve" font-family="Helvetica-Light,Helvetica" font-size="40.0" fill="#919191" transform="matrix(1.00, 0.00, -0.00, -1.00, 318.9, 305.1)">p</text><text xml:space="preserve" font-family="Helvetica-Light,Helvetica" font-size="40.0" fill="#919191" transform="matrix(1.00, 0.00, -0.00, -1.00, 343.3, 305.1)">a</text><text xml:space="preserve" font-family="Helvetica-Light,Helvetica" font-size="40.0" fill="#919191" transform="matrix(1.00, 0.00, -0.00, -1.00, 365.5, 305.1)">p</text><text xml:space="preserve" font-family="Helvetica-Light,Helvetica" font-size="40.0" fill="#919191" transform="matrix(1.00, 0.00, -0.00, -1.00, 390.0, 305.1)">e</text><text xml:space="preserve" font-family="Helvetica-Light,Helvetica" font-size="40.0" fill="#919191" transform="matrix(1.00, 0.00, -0.00, -1.00, 412.2, 305.1)">r</text><text xml:space="preserve" font-family="Helvetica-Light,Helvetica" font-size="40.0" fill="#919191" transform="matrix(1.00, 0.00, -0.00, -1.00, 425.5, 305.1)"> </text><image xlink:href="../../9C639F64-C9C5-4635-97CF-9807CB814B2C/assets/1BC49180499F5A94E2B392F358FBA16C.png" width="80.00" height="80.00" transform="matrix(0.25, 0.00, -0.00, -0.25, 0.3, 244.3)"></image><text xml:space="preserve" font-family="Helvetica-Light,Helvetica" font-size="40.0" fill="#919191" transform="matrix(1.00, 0.00, -0.00, -1.00, 38.8, 223.5)">G</text><text xml:space="preserve" font-family="Helvetica-Light,Helvetica" font-size="40.0" fill="#919191" transform="matrix(1.00, 0.00, -0.00, -1.00, 69.9, 223.5)">r</text><text xml:space="preserve" font-family="Helvetica-Light,Helvetica" font-size="40.0" fill="#919191" transform="matrix(1.00, 0.00, -0.00, -1.00, 83.2, 223.5)">a</text><text xml:space="preserve" font-family="Helvetica-Light,Helvetica" font-size="40.0" fill="#919191" transform="matrix(1.00, 0.00, -0.00, -1.00, 105.5, 223.5)">p</text><text xml:space="preserve" font-family="Helvetica-Light,Helvetica" font-size="40.0" fill="#919191" transform="matrix(1.00, 0.00, -0.00, -1.00, 129.9, 223.5)">h</text><text xml:space="preserve" font-family="Helvetica-Light,Helvetica" font-size="40.0" fill="#919191" transform="matrix(1.00, 0.00, -0.00, -1.00, 152.1, 223.5)">i</text><text xml:space="preserve" font-family="Helvetica-Light,Helvetica" font-size="40.0" fill="#919191" transform="matrix(1.00, 0.00, -0.00, -1.00, 161.0, 223.5)">c</text><text xml:space="preserve" font-family="Helvetica-Light,Helvetica" font-size="40.0" fill="#919191" transform="matrix(1.00, 0.00, -0.00, -1.00, 183.3, 223.5)">s</text><text xml:space="preserve" font-family="Helvetica-Light,Helvetica" font-size="40.0" fill="#919191" transform="matrix(1.00, 0.00, -0.00, -1.00, 203.3, 223.5)"> </text><image xlink:href="../../9C639F64-C9C5-4635-97CF-9807CB814B2C/assets/1BC49180499F5A94E2B392F358FBA16C.png" width="80.00" height="80.00" transform="matrix(0.25, 0.00, -0.00, -0.25, 0.3, 162.7)"></image><text xml:space="preserve" font-family="Helvetica-Light,Helvetica" font-size="40.0" fill="#919191" transform="matrix(1.00, 0.00, -0.00, -1.00, 38.8, 141.9)">N</text><text xml:space="preserve" font-family="Helvetica-Light,Helvetica" font-size="40.0" fill="#919191" transform="matrix(1.00, 0.00, -0.00, -1.00, 67.7, 141.9)">a</text><text xml:space="preserve" font-family="Helvetica-Light,Helvetica" font-size="40.0" fill="#919191" transform="matrix(1.00, 0.00, -0.00, -1.00, 89.9, 141.9)">t</text><text xml:space="preserve" font-family="Helvetica-Light,Helvetica" font-size="40.0" fill="#919191" transform="matrix(1.00, 0.00, -0.00, -1.00, 101.0, 141.9)">i</text><text xml:space="preserve" font-family="Helvetica-Light,Helvetica" font-size="40.0" fill="#919191" transform="matrix(1.00, 0.00, -0.00, -1.00, 109.9, 141.9)">o</text><text xml:space="preserve" font-family="Helvetica-Light,Helvetica" font-size="40.0" fill="#919191" transform="matrix(1.00, 0.00, -0.00, -1.00, 132.1, 141.9)">n</text><text xml:space="preserve" font-family="Helvetica-Light,Helvetica" font-size="40.0" fill="#919191" transform="matrix(1.00, 0.00, -0.00, -1.00, 154.4, 141.9)">a</text><text xml:space="preserve" font-family="Helvetica-Light,Helvetica" font-size="40.0" fill="#919191" transform="matrix(1.00, 0.00, -0.00, -1.00, 176.6, 141.9)">l</text><text xml:space="preserve" font-family="Helvetica-Light,Helvetica" font-size="40.0" fill="#919191" transform="matrix(1.00, 0.00, -0.00, -1.00, 185.5, 141.9)"> </text><text xml:space="preserve" font-family="Helvetica-Light,Helvetica" font-size="40.0" fill="#919191" transform="matrix(1.00, 0.00, -0.00, -1.00, 196.6, 141.9)">w</text><text xml:space="preserve" font-family="Helvetica-Light,Helvetica" font-size="40.0" fill="#919191" transform="matrix(1.00, 0.00, -0.00, -1.00, 225.5, 141.9)">e</text><text xml:space="preserve" font-family="Helvetica-Light,Helvetica" font-size="40.0" fill="#919191" transform="matrix(1.00, 0.00, -0.00, -1.00, 247.7, 141.9)">a</text><text xml:space="preserve" font-family="Helvetica-Light,Helvetica" font-size="40.0" fill="#919191" transform="matrix(1.00, 0.00, -0.00, -1.00, 270.0, 141.9)">t</text><text xml:space="preserve" font-family="Helvetica-Light,Helvetica" font-size="40.0" fill="#919191" transform="matrix(1.00, 0.00, -0.00, -1.00, 281.1, 141.9)">h</text><text xml:space="preserve" font-family="Helvetica-Light,Helvetica" font-size="40.0" fill="#919191" transform="matrix(1.00, 0.00, -0.00, -1.00, 303.3, 141.9)">e</text><text xml:space="preserve" font-family="Helvetica-Light,Helvetica" font-size="40.0" fill="#919191" transform="matrix(1.00, 0.00, -0.00, -1.00, 325.6, 141.9)">r</text><text xml:space="preserve" font-family="Helvetica-Light,Helvetica" font-size="40.0" fill="#919191" transform="matrix(1.00, 0.00, -0.00, -1.00, 338.9, 141.9)"> </text><text xml:space="preserve" font-family="Helvetica-Light,Helvetica" font-size="40.0" fill="#919191" transform="matrix(1.00, 0.00, -0.00, -1.00, 350.0, 141.9)">m</text><text xml:space="preserve" font-family="Helvetica-Light,Helvetica" font-size="40.0" fill="#919191" transform="matrix(1.00, 0.00, -0.00, -1.00, 383.3, 141.9)">a</text><text xml:space="preserve" font-family="Helvetica-Light,Helvetica" font-size="40.0" fill="#919191" transform="matrix(1.00, 0.00, -0.00, -1.00, 405.6, 141.9)">p</text><text xml:space="preserve" font-family="Helvetica-Light,Helvetica" font-size="40.0" fill="#919191" transform="matrix(1.00, 0.00, -0.00, -1.00, 430.0, 141.9)"> </text><image xlink:href="../../9C639F64-C9C5-4635-97CF-9807CB814B2C/assets/1BC49180499F5A94E2B392F358FBA16C.png" width="80.00" height="80.00" transform="matrix(0.25, 0.00, -0.00, -0.25, 0.3, 81.1)"></image><text xml:space="preserve" font-family="Helvetica-Light,Helvetica" font-size="40.0" fill="#919191" transform="matrix(1.00, 0.00, -0.00, -1.00, 38.8, 60.3)">“</text><text xml:space="preserve" font-family="Helvetica-Light,Helvetica" font-size="40.0" fill="#919191" transform="matrix(1.00, 0.00, -0.00, -1.00, 54.3, 60.3)">A</text><text xml:space="preserve" font-family="Helvetica-Light,Helvetica" font-size="40.0" fill="#919191" transform="matrix(1.00, 0.00, -0.00, -1.00, 81.0, 60.3)">n</text><text xml:space="preserve" font-family="Helvetica-Light,Helvetica" font-size="40.0" fill="#919191" transform="matrix(1.00, 0.00, -0.00, -1.00, 103.3, 60.3)"> </text><text xml:space="preserve" font-family="Helvetica-Light,Helvetica" font-size="40.0" fill="#919191" transform="matrix(1.00, 0.00, -0.00, -1.00, 114.4, 60.3)">e</text><text xml:space="preserve" font-family="Helvetica-Light,Helvetica" font-size="40.0" fill="#919191" transform="matrix(1.00, 0.00, -0.00, -1.00, 136.6, 60.3)">c</text><text xml:space="preserve" font-family="Helvetica-Light,Helvetica" font-size="40.0" fill="#919191" transform="matrix(1.00, 0.00, -0.00, -1.00, 158.9, 60.3)">o</text><text xml:space="preserve" font-family="Helvetica-Light,Helvetica" font-size="40.0" fill="#919191" transform="matrix(1.00, 0.00, -0.00, -1.00, 181.1, 60.3)">n</text><text xml:space="preserve" font-family="Helvetica-Light,Helvetica" font-size="40.0" fill="#919191" transform="matrix(1.00, 0.00, -0.00, -1.00, 203.3, 60.3)">o</text><text xml:space="preserve" font-family="Helvetica-Light,Helvetica" font-size="40.0" fill="#919191" transform="matrix(1.00, 0.00, -0.00, -1.00, 225.6, 60.3)">m</text><text xml:space="preserve" font-family="Helvetica-Light,Helvetica" font-size="40.0" fill="#919191" transform="matrix(1.00, 0.00, -0.00, -1.00, 258.9, 60.3)">y</text><text xml:space="preserve" font-family="Helvetica-Light,Helvetica" font-size="40.0" fill="#919191" transform="matrix(1.00, 0.00, -0.00, -1.00, 278.9, 60.3)"> </text><text xml:space="preserve" font-family="Helvetica-Light,Helvetica" font-size="40.0" fill="#919191" transform="matrix(1.00, 0.00, -0.00, -1.00, 290.0, 60.3)">o</text><text xml:space="preserve" font-family="Helvetica-Light,Helvetica" font-size="40.0" fill="#919191" transform="matrix(1.00, 0.00, -0.00, -1.00, 312.3, 60.3)">f</text><text xml:space="preserve" font-family="Helvetica-Light,Helvetica" font-size="40.0" fill="#919191" transform="matrix(1.00, 0.00, -0.00, -1.00, 323.4, 60.3)"> </text><text xml:space="preserve" font-family="Helvetica-Light,Helvetica" font-size="40.0" fill="#919191" transform="matrix(1.00, 0.00, -0.00, -1.00, 334.5, 60.3)">w</text><text xml:space="preserve" font-family="Helvetica-Light,Helvetica" font-size="40.0" fill="#919191" transform="matrix(1.00, 0.00, -0.00, -1.00, 363.4, 60.3)">o</text><text xml:space="preserve" font-family="Helvetica-Light,Helvetica" font-size="40.0" fill="#919191" transform="matrix(1.00, 0.00, -0.00, -1.00, 385.6, 60.3)">r</text><text xml:space="preserve" font-family="Helvetica-Light,Helvetica" font-size="40.0" fill="#919191" transform="matrix(1.00, 0.00, -0.00, -1.00, 398.2, 60.3)">d</text><text xml:space="preserve" font-family="Helvetica-Light,Helvetica" font-size="40.0" fill="#919191" transform="matrix(1.00, 0.00, -0.00, -1.00, 422.7, 60.3)">s</text><text xml:space="preserve" font-family="Helvetica-Light,Helvetica" font-size="40.0" fill="#919191" transform="matrix(1.00, 0.00, -0.00, -1.00, 442.7, 60.3)">.</text><text xml:space="preserve" font-family="Helvetica-Light,Helvetica" font-size="40.0" fill="#919191" transform="matrix(1.00, 0.00, -0.00, -1.00, 453.8, 60.3)"> </text><text xml:space="preserve" font-family="Helvetica-Light,Helvetica" font-size="40.0" fill="#919191" transform="matrix(1.00, 0.00, -0.00, -1.00, 464.9, 60.3)">A</text><text xml:space="preserve" font-family="Helvetica-Light,Helvetica" font-size="40.0" fill="#919191" transform="matrix(1.00, 0.00, -0.00, -1.00, 491.6, 60.3)"> </text><text xml:space="preserve" font-family="Helvetica-Light,Helvetica" font-size="40.0" fill="#919191" transform="matrix(1.00, 0.00, -0.00, -1.00, 38.8, 2.7)">w</text><text xml:space="preserve" font-family="Helvetica-Light,Helvetica" font-size="40.0" fill="#919191" transform="matrix(1.00, 0.00, -0.00, -1.00, 67.7, 2.7)">e</text><text xml:space="preserve" font-family="Helvetica-Light,Helvetica" font-size="40.0" fill="#919191" transform="matrix(1.00, 0.00, -0.00, -1.00, 89.9, 2.7)">a</text><text xml:space="preserve" font-family="Helvetica-Light,Helvetica" font-size="40.0" fill="#919191" transform="matrix(1.00, 0.00, -0.00, -1.00, 112.1, 2.7)">l</text><text xml:space="preserve" font-family="Helvetica-Light,Helvetica" font-size="40.0" fill="#919191" transform="matrix(1.00, 0.00, -0.00, -1.00, 121.0, 2.7)">t</text><text xml:space="preserve" font-family="Helvetica-Light,Helvetica" font-size="40.0" fill="#919191" transform="matrix(1.00, 0.00, -0.00, -1.00, 132.1, 2.7)">h</text><text xml:space="preserve" font-family="Helvetica-Light,Helvetica" font-size="40.0" fill="#919191" transform="matrix(1.00, 0.00, -0.00, -1.00, 154.4, 2.7)"> </text><text xml:space="preserve" font-family="Helvetica-Light,Helvetica" font-size="40.0" fill="#919191" transform="matrix(1.00, 0.00, -0.00, -1.00, 165.5, 2.7)">o</text><text xml:space="preserve" font-family="Helvetica-Light,Helvetica" font-size="40.0" fill="#919191" transform="matrix(1.00, 0.00, -0.00, -1.00, 187.7, 2.7)">f</text><text xml:space="preserve" font-family="Helvetica-Light,Helvetica" font-size="40.0" fill="#919191" transform="matrix(1.00, 0.00, -0.00, -1.00, 198.9, 2.7)"> </text><text xml:space="preserve" font-family="Helvetica-Light,Helvetica" font-size="40.0" fill="#919191" transform="matrix(1.00, 0.00, -0.00, -1.00, 210.0, 2.7)">i</text><text xml:space="preserve" font-family="Helvetica-Light,Helvetica" font-size="40.0" fill="#919191" transform="matrix(1.00, 0.00, -0.00, -1.00, 218.9, 2.7)">n</text><text xml:space="preserve" font-family="Helvetica-Light,Helvetica" font-size="40.0" fill="#919191" transform="matrix(1.00, 0.00, -0.00, -1.00, 241.1, 2.7)">f</text><text xml:space="preserve" font-family="Helvetica-Light,Helvetica" font-size="40.0" fill="#919191" transform="matrix(1.00, 0.00, -0.00, -1.00, 252.2, 2.7)">o</text><text xml:space="preserve" font-family="Helvetica-Light,Helvetica" font-size="40.0" fill="#919191" transform="matrix(1.00, 0.00, -0.00, -1.00, 274.5, 2.7)">r</text><text xml:space="preserve" font-family="Helvetica-Light,Helvetica" font-size="40.0" fill="#919191" transform="matrix(1.00, 0.00, -0.00, -1.00, 288.5, 2.7)">m</text><text xml:space="preserve" font-family="Helvetica-Light,Helvetica" font-size="40.0" fill="#919191" transform="matrix(1.00, 0.00, -0.00, -1.00, 321.8, 2.7)">a</text><text xml:space="preserve" font-family="Helvetica-Light,Helvetica" font-size="40.0" fill="#919191" transform="matrix(1.00, 0.00, -0.00, -1.00, 344.1, 2.7)">t</text><text xml:space="preserve" font-family="Helvetica-Light,Helvetica" font-size="40.0" fill="#919191" transform="matrix(1.00, 0.00, -0.00, -1.00, 355.2, 2.7)">i</text><text xml:space="preserve" font-family="Helvetica-Light,Helvetica" font-size="40.0" fill="#919191" transform="matrix(1.00, 0.00, -0.00, -1.00, 364.1, 2.7)">o</text><text xml:space="preserve" font-family="Helvetica-Light,Helvetica" font-size="40.0" fill="#919191" transform="matrix(1.00, 0.00, -0.00, -1.00, 386.3, 2.7)">n</text><text xml:space="preserve" font-family="Helvetica-Light,Helvetica" font-size="40.0" fill="#919191" transform="matrix(1.00, 0.00, -0.00, -1.00, 408.5, 2.7)">.</text><text xml:space="preserve" font-family="Helvetica-Light,Helvetica" font-size="40.0" fill="#919191" transform="matrix(1.00, 0.00, -0.00, -1.00, 419.7, 2.7)">"</text><text xml:space="preserve" font-family="Helvetica-Light,Helvetica" font-size="40.0" fill="#919191" transform="matrix(1.00, 0.00, -0.00, -1.00, 430.8, 2.7)"> </text></g></svg>