<?xml version="1.0" encoding="UTF-8" standalone="no"?><svg xmlns="http://www.w3.org/2000/svg" xmlns:xlink="http://www.w3.org/1999/xlink" clip-rule="evenodd" stroke-miterlimit="10" viewBox="0 0 407 63"><desc>SVG generated by Keynote</desc><defs></defs><g transform="matrix(1.00, 0.00, -0.00, -1.00, 0.0, 63.0)"><text xml:space="preserve" font-family="Futura-Medium,Futura" font-size="72.0" fill="#515151" transform="matrix(1.00, 0.00, -0.00, -1.00, -4.9, 3.5)">U</text><text xml:space="preserve" font-family="Futura-Medium,Futura" font-size="72.0" fill="#515151" transform="matrix(1.00, 0.00, -0.00, -1.00, 48.3, 3.5)">S</text><text xml:space="preserve" font-family="Futura-Medium,Futura" font-size="72.0" fill="#515151" transform="matrix(1.00, 0.00, -0.00, -1.00, 89.7, 3.5)">A</text><text xml:space="preserve" font-family="Futura-Medium,Futura" font-size="72.0" fill="#515151" transform="matrix(1.00, 0.00, -0.00, -1.00, 143.0, 3.5)"> </text><text xml:space="preserve" font-family="Futura-Medium,Futura" font-size="72.0" fill="#515151" transform="matrix(1.00, 0.00, -0.00, -1.00, 165.2, 3.5)">T</text><text xml:space="preserve" font-family="Futura-Medium,Futura" font-size="72.0" fill="#515151" transform="matrix(1.00, 0.00, -0.00, -1.00, 198.2, 3.5)">O</text><text xml:space="preserve" font-family="Futura-Medium,Futura" font-size="72.0" fill="#515151" transform="matrix(1.00, 0.00, -0.00, -1.00, 262.6, 3.5)">D</text><text xml:space="preserve" font-family="Futura-Medium,Futura" font-size="72.0" fill="#515151" transform="matrix(1.00, 0.00, -0.00, -1.00, 312.2, 3.5)">A</text><text xml:space="preserve" font-family="Futura-Medium,Futura" font-size="72.0" fill="#515151" transform="matrix(1.00, 0.00, -0.00, -1.00, 360.7, 3.5)">Y</text></g></svg>