<?xml version="1.0" encoding="UTF-8" standalone="no"?><svg xmlns="http://www.w3.org/2000/svg" xmlns:xlink="http://www.w3.org/1999/xlink" clip-rule="evenodd" stroke-miterlimit="10" viewBox="0 0 1440 1080"><desc>SVG generated by Keynote</desc><defs><linearGradient id="gradSh1.13" x1="0.0" y1="0.0" x2="100.0" y2="0.0" gradientUnits="userSpaceOnUse" gradientTransform="matrix(14.42, 0.00, 0.00, -10.82, -1.0, 540.0)"><stop offset="0.00000" stop-color="#333333"></stop><stop offset="0.00660" stop-color="#323232"></stop><stop offset="1.00000" stop-color="#000000"></stop></linearGradient></defs><g transform="matrix(1.00, 0.00, -0.00, -1.00, 0.0, 1080.0)"><g><clipPath id="clip0x6000034a6180"><path d="M 0.0 1080.0 L 1440.0 1080.0 L 1440.0 0.0 L 0.0 0.0 Z M 0.0 1080.0 "></path></clipPath><g clip-path="url(#clip0x6000034a6180)"><path d="M 0.0 1080.0 L 1440.0 1080.0 L 1440.0 0.0 L 0.0 0.0 Z M 0.0 1080.0 " fill="url(#gradSh1.13)"></path></g></g><text xml:space="preserve" font-family="Helvetica-Bold,Helvetica" font-weight="bold" font-size="72.0" fill="#FEFFFF" transform="matrix(1.00, 0.00, -0.00, -1.00, 239.3, 554.0)">N</text><text xml:space="preserve" font-family="Helvetica-Bold,Helvetica" font-weight="bold" font-size="72.0" fill="#FEFFFF" transform="matrix(1.00, 0.00, -0.00, -1.00, 291.3, 554.0)">O</text><text xml:space="preserve" font-family="Helvetica-Bold,Helvetica" font-weight="bold" font-size="72.0" fill="#FEFFFF" transform="matrix(1.00, 0.00, -0.00, -1.00, 347.3, 554.0)">T</text><text xml:space="preserve" font-family="Helvetica-Bold,Helvetica" font-weight="bold" font-size="72.0" fill="#FEFFFF" transform="matrix(1.00, 0.00, -0.00, -1.00, 391.3, 554.0)"> </text><text xml:space="preserve" font-family="Helvetica-Bold,Helvetica" font-weight="bold" font-size="72.0" fill="#FEFFFF" transform="matrix(1.00, 0.00, -0.00, -1.00, 411.2, 554.0)">E</text><text xml:space="preserve" font-family="Helvetica-Bold,Helvetica" font-weight="bold" font-size="72.0" fill="#FEFFFF" transform="matrix(1.00, 0.00, -0.00, -1.00, 459.3, 554.0)">V</text><text xml:space="preserve" font-family="Helvetica-Bold,Helvetica" font-weight="bold" font-size="72.0" fill="#FEFFFF" transform="matrix(1.00, 0.00, -0.00, -1.00, 507.3, 554.0)">E</text><text xml:space="preserve" font-family="Helvetica-Bold,Helvetica" font-weight="bold" font-size="72.0" fill="#FEFFFF" transform="matrix(1.00, 0.00, -0.00, -1.00, 555.3, 554.0)">R</text><text xml:space="preserve" font-family="Helvetica-Bold,Helvetica" font-weight="bold" font-size="72.0" fill="#FEFFFF" transform="matrix(1.00, 0.00, -0.00, -1.00, 604.7, 554.0)">Y</text><text xml:space="preserve" font-family="Helvetica-Bold,Helvetica" font-weight="bold" font-size="72.0" fill="#FEFFFF" transform="matrix(1.00, 0.00, -0.00, -1.00, 652.7, 554.0)">T</text><text xml:space="preserve" font-family="Helvetica-Bold,Helvetica" font-weight="bold" font-size="72.0" fill="#FEFFFF" transform="matrix(1.00, 0.00, -0.00, -1.00, 696.7, 554.0)">H</text><text xml:space="preserve" font-family="Helvetica-Bold,Helvetica" font-weight="bold" font-size="72.0" fill="#FEFFFF" transform="matrix(1.00, 0.00, -0.00, -1.00, 748.7, 554.0)">I</text><text xml:space="preserve" font-family="Helvetica-Bold,Helvetica" font-weight="bold" font-size="72.0" fill="#FEFFFF" transform="matrix(1.00, 0.00, -0.00, -1.00, 768.7, 554.0)">N</text><text xml:space="preserve" font-family="Helvetica-Bold,Helvetica" font-weight="bold" font-size="72.0" fill="#FEFFFF" transform="matrix(1.00, 0.00, -0.00, -1.00, 820.7, 554.0)">G</text><text xml:space="preserve" font-family="Helvetica-Bold,Helvetica" font-weight="bold" font-size="72.0" fill="#FEFFFF" transform="matrix(1.00, 0.00, -0.00, -1.00, 876.7, 554.0)"> </text><text xml:space="preserve" font-family="Helvetica-Bold,Helvetica" font-weight="bold" font-size="72.0" fill="#FEFFFF" transform="matrix(1.00, 0.00, -0.00, -1.00, 896.7, 554.0)">S</text><text xml:space="preserve" font-family="Helvetica-Bold,Helvetica" font-weight="bold" font-size="72.0" fill="#FEFFFF" transform="matrix(1.00, 0.00, -0.00, -1.00, 944.7, 554.0)">H</text><text xml:space="preserve" font-family="Helvetica-Bold,Helvetica" font-weight="bold" font-size="72.0" fill="#FEFFFF" transform="matrix(1.00, 0.00, -0.00, -1.00, 996.7, 554.0)">O</text><text xml:space="preserve" font-family="Helvetica-Bold,Helvetica" font-weight="bold" font-size="72.0" fill="#FEFFFF" transform="matrix(1.00, 0.00, -0.00, -1.00, 1052.7, 554.0)">U</text><text xml:space="preserve" font-family="Helvetica-Bold,Helvetica" font-weight="bold" font-size="72.0" fill="#FEFFFF" transform="matrix(1.00, 0.00, -0.00, -1.00, 1104.7, 554.0)">L</text><text xml:space="preserve" font-family="Helvetica-Bold,Helvetica" font-weight="bold" font-size="72.0" fill="#FEFFFF" transform="matrix(1.00, 0.00, -0.00, -1.00, 1148.7, 554.0)">D</text><text xml:space="preserve" font-family="Helvetica-Bold,Helvetica" font-weight="bold" font-size="72.0" fill="#FEFFFF" transform="matrix(1.00, 0.00, -0.00, -1.00, 1200.7, 554.0)"> </text><text xml:space="preserve" font-family="Helvetica-Bold,Helvetica" font-weight="bold" font-size="72.0" fill="#FEFFFF" transform="matrix(1.00, 0.00, -0.00, -1.00, 546.6, 468.0)">B</text><text xml:space="preserve" font-family="Helvetica-Bold,Helvetica" font-weight="bold" font-size="72.0" fill="#FEFFFF" transform="matrix(1.00, 0.00, -0.00, -1.00, 598.6, 468.0)">E</text><text xml:space="preserve" font-family="Helvetica-Bold,Helvetica" font-weight="bold" font-size="72.0" fill="#FEFFFF" transform="matrix(1.00, 0.00, -0.00, -1.00, 646.7, 468.0)"> </text><text xml:space="preserve" font-family="Helvetica-Bold,Helvetica" font-weight="bold" font-size="72.0" fill="#FEFFFF" transform="matrix(1.00, 0.00, -0.00, -1.00, 664.0, 468.0)">A</text><text xml:space="preserve" font-family="Helvetica-Bold,Helvetica" font-weight="bold" font-size="72.0" fill="#FEFFFF" transform="matrix(1.00, 0.00, -0.00, -1.00, 713.4, 468.0)"> </text><text xml:space="preserve" font-family="Helvetica-Bold,Helvetica" font-weight="bold" font-size="72.0" fill="#FEFFFF" transform="matrix(1.00, 0.00, -0.00, -1.00, 733.4, 468.0)">M</text><text xml:space="preserve" font-family="Helvetica-Bold,Helvetica" font-weight="bold" font-size="72.0" fill="#FEFFFF" transform="matrix(1.00, 0.00, -0.00, -1.00, 793.3, 468.0)">A</text><text xml:space="preserve" font-family="Helvetica-Bold,Helvetica" font-weight="bold" font-size="72.0" fill="#FEFFFF" transform="matrix(1.00, 0.00, -0.00, -1.00, 845.4, 468.0)">P</text></g></svg>