<?xml version="1.0" encoding="UTF-8" standalone="no"?><svg xmlns="http://www.w3.org/2000/svg" xmlns:xlink="http://www.w3.org/1999/xlink" clip-rule="evenodd" stroke-miterlimit="10" viewBox="0 0 1440 1080"><desc>SVG generated by Keynote</desc><defs><linearGradient id="gradSh1.0" x1="0.0" y1="0.0" x2="100.0" y2="0.0" gradientUnits="userSpaceOnUse" gradientTransform="matrix(14.42, 0.00, 0.00, -10.82, -1.0, 540.0)"><stop offset="0.00000" stop-color="#515151"></stop><stop offset="0.00953" stop-color="#505050"></stop><stop offset="1.00000" stop-color="#0E0E0E"></stop></linearGradient></defs><g transform="matrix(1.00, 0.00, -0.00, -1.00, 0.0, 1080.0)"><g><clipPath id="clip0x600000eae820"><path d="M 0.0 1080.0 L 1440.0 1080.0 L 1440.0 0.0 L 0.0 0.0 Z M 0.0 1080.0 "></path></clipPath><g clip-path="url(#clip0x600000eae820)"><path d="M 0.0 1080.0 L 1440.0 1080.0 L 1440.0 0.0 L 0.0 0.0 Z M 0.0 1080.0 " fill="url(#gradSh1.0)"></path></g></g><g><clipPath id="clip0x6000014b6680"><path d="M 112.8 280.9 L 558.8 280.9 L 558.8 292.5 L 112.8 292.5 Z M 112.8 280.9 "></path></clipPath><g clip-path="url(#clip0x6000014b6680)"><path d="M 114.0 291.0 L 558.0 291.0 L 558.0 282.0 L 114.0 282.0 Z M 113.8 291.5 " fill="#4BB8F7"></path></g></g><g><clipPath id="clip0x6000014b66e0"><path d="M 554.8 280.9 L 1000.9 280.9 L 1000.9 292.5 L 554.8 292.5 Z M 554.8 280.9 "></path></clipPath><g clip-path="url(#clip0x6000014b66e0)"><path d="M 556.0 291.0 L 1000.0 291.0 L 1000.0 282.0 L 556.0 282.0 Z M 555.8 291.5 " fill="#9BCC4F"></path></g></g><g><clipPath id="clip0x6000014b6b00"><path d="M 996.9 280.9 L 1443.0 280.9 L 1443.0 292.5 L 996.9 292.5 Z M 996.9 280.9 "></path></clipPath><g clip-path="url(#clip0x6000014b6b00)"><path d="M 998.0 291.0 L 1442.0 291.0 L 1442.0 282.0 L 998.0 282.0 Z M 997.9 291.5 " fill="#B58E64"></path></g></g><text xml:space="preserve" font-family="Helvetica,Helvetica" font-size="80.0" fill="#FEFFFF" transform="matrix(1.00, 0.00, -0.00, -1.00, 111.0, 314.8)">D</text><text xml:space="preserve" font-family="Helvetica,Helvetica" font-size="80.0" fill="#FEFFFF" transform="matrix(1.00, 0.00, -0.00, -1.00, 168.8, 314.8)">A</text><text xml:space="preserve" font-family="Helvetica,Helvetica" font-size="80.0" fill="#FEFFFF" transform="matrix(1.00, 0.00, -0.00, -1.00, 216.3, 314.8)">T</text><text xml:space="preserve" font-family="Helvetica,Helvetica" font-size="80.0" fill="#FEFFFF" transform="matrix(1.00, 0.00, -0.00, -1.00, 259.2, 314.8)">A</text><text xml:space="preserve" font-family="Helvetica,Helvetica" font-size="80.0" fill="#FEFFFF" transform="matrix(1.00, 0.00, -0.00, -1.00, 308.2, 314.8)"> </text><text xml:space="preserve" font-family="Helvetica,Helvetica" font-size="80.0" fill="#FEFFFF" transform="matrix(1.00, 0.00, -0.00, -1.00, 330.4, 314.8)">V</text><text xml:space="preserve" font-family="Helvetica,Helvetica" font-size="80.0" fill="#FEFFFF" transform="matrix(1.00, 0.00, -0.00, -1.00, 383.8, 314.8)">I</text><text xml:space="preserve" font-family="Helvetica,Helvetica" font-size="80.0" fill="#FEFFFF" transform="matrix(1.00, 0.00, -0.00, -1.00, 406.0, 314.8)">Z</text><text xml:space="preserve" font-family="Helvetica,Helvetica" font-size="80.0" fill="#FEFFFF" transform="matrix(1.00, 0.00, -0.00, -1.00, 454.8, 314.8)"> </text><text xml:space="preserve" font-family="Helvetica,Helvetica" font-size="80.0" fill="#FEFFFF" transform="matrix(1.00, 0.00, -0.00, -1.00, 477.0, 314.8)">P</text><text xml:space="preserve" font-family="Helvetica,Helvetica" font-size="80.0" fill="#FEFFFF" transform="matrix(1.00, 0.00, -0.00, -1.00, 530.4, 314.8)">R</text><text xml:space="preserve" font-family="Helvetica,Helvetica" font-size="80.0" fill="#FEFFFF" transform="matrix(1.00, 0.00, -0.00, -1.00, 588.2, 314.8)">I</text><text xml:space="preserve" font-family="Helvetica,Helvetica" font-size="80.0" fill="#FEFFFF" transform="matrix(1.00, 0.00, -0.00, -1.00, 610.4, 314.8)">N</text><text xml:space="preserve" font-family="Helvetica,Helvetica" font-size="80.0" fill="#FEFFFF" transform="matrix(1.00, 0.00, -0.00, -1.00, 668.2, 314.8)">C</text><text xml:space="preserve" font-family="Helvetica,Helvetica" font-size="80.0" fill="#FEFFFF" transform="matrix(1.00, 0.00, -0.00, -1.00, 726.0, 314.8)">I</text><text xml:space="preserve" font-family="Helvetica,Helvetica" font-size="80.0" fill="#FEFFFF" transform="matrix(1.00, 0.00, -0.00, -1.00, 748.2, 314.8)">P</text><text xml:space="preserve" font-family="Helvetica,Helvetica" font-size="80.0" fill="#FEFFFF" transform="matrix(1.00, 0.00, -0.00, -1.00, 801.5, 314.8)">L</text><text xml:space="preserve" font-family="Helvetica,Helvetica" font-size="80.0" fill="#FEFFFF" transform="matrix(1.00, 0.00, -0.00, -1.00, 846.0, 314.8)">E</text><text xml:space="preserve" font-family="Helvetica,Helvetica" font-size="80.0" fill="#FEFFFF" transform="matrix(1.00, 0.00, -0.00, -1.00, 899.4, 314.8)">S</text><text xml:space="preserve" font-family="Helvetica-Bold,Helvetica" font-weight="bold" font-size="40.0" fill="#FEFFFF" transform="matrix(1.00, 0.00, -0.00, -1.00, 116.5, 238.7)">M</text><text xml:space="preserve" font-family="Helvetica-Bold,Helvetica" font-weight="bold" font-size="40.0" fill="#FEFFFF" transform="matrix(1.00, 0.00, -0.00, -1.00, 149.9, 238.7)">a</text><text xml:space="preserve" font-family="Helvetica-Bold,Helvetica" font-weight="bold" font-size="40.0" fill="#FEFFFF" transform="matrix(1.00, 0.00, -0.00, -1.00, 172.1, 238.7)">u</text><text xml:space="preserve" font-family="Helvetica-Bold,Helvetica" font-weight="bold" font-size="40.0" fill="#FEFFFF" transform="matrix(1.00, 0.00, -0.00, -1.00, 196.5, 238.7)">r</text><text xml:space="preserve" font-family="Helvetica-Bold,Helvetica" font-weight="bold" font-size="40.0" fill="#FEFFFF" transform="matrix(1.00, 0.00, -0.00, -1.00, 212.1, 238.7)">e</text><text xml:space="preserve" font-family="Helvetica-Bold,Helvetica" font-weight="bold" font-size="40.0" fill="#FEFFFF" transform="matrix(1.00, 0.00, -0.00, -1.00, 234.4, 238.7)">e</text><text xml:space="preserve" font-family="Helvetica-Bold,Helvetica" font-weight="bold" font-size="40.0" fill="#FEFFFF" transform="matrix(1.00, 0.00, -0.00, -1.00, 256.6, 238.7)">n</text><text xml:space="preserve" font-family="Helvetica-Bold,Helvetica" font-weight="bold" font-size="40.0" fill="#FEFFFF" transform="matrix(1.00, 0.00, -0.00, -1.00, 281.0, 238.7)"> </text><text xml:space="preserve" font-family="Helvetica-Bold,Helvetica" font-weight="bold" font-size="40.0" fill="#FEFFFF" transform="matrix(1.00, 0.00, -0.00, -1.00, 292.2, 238.7)">L</text><text xml:space="preserve" font-family="Helvetica-Bold,Helvetica" font-weight="bold" font-size="40.0" fill="#FEFFFF" transform="matrix(1.00, 0.00, -0.00, -1.00, 316.6, 238.7)">i</text><text xml:space="preserve" font-family="Helvetica-Bold,Helvetica" font-weight="bold" font-size="40.0" fill="#FEFFFF" transform="matrix(1.00, 0.00, -0.00, -1.00, 327.7, 238.7)">n</text><text xml:space="preserve" font-family="Helvetica-Bold,Helvetica" font-weight="bold" font-size="40.0" fill="#FEFFFF" transform="matrix(1.00, 0.00, -0.00, -1.00, 352.1, 238.7)">k</text><text xml:space="preserve" font-family="Helvetica-Bold,Helvetica" font-weight="bold" font-size="40.0" fill="#FEFFFF" transform="matrix(1.00, 0.00, -0.00, -1.00, 374.4, 238.7)">e</text><text xml:space="preserve" font-family="Helvetica,Helvetica" font-size="36.0" fill="#CACACA" transform="matrix(1.00, 0.00, -0.00, -1.00, 116.5, 170.8)">D</text><text xml:space="preserve" font-family="Helvetica,Helvetica" font-size="36.0" fill="#CACACA" transform="matrix(1.00, 0.00, -0.00, -1.00, 142.5, 170.8)">e</text><text xml:space="preserve" font-family="Helvetica,Helvetica" font-size="36.0" fill="#CACACA" transform="matrix(1.00, 0.00, -0.00, -1.00, 162.6, 170.8)">v</text><text xml:space="preserve" font-family="Helvetica,Helvetica" font-size="36.0" fill="#CACACA" transform="matrix(1.00, 0.00, -0.00, -1.00, 180.6, 170.8)">e</text><text xml:space="preserve" font-family="Helvetica,Helvetica" font-size="36.0" fill="#CACACA" transform="matrix(1.00, 0.00, -0.00, -1.00, 200.6, 170.8)">l</text><text xml:space="preserve" font-family="Helvetica,Helvetica" font-size="36.0" fill="#CACACA" transform="matrix(1.00, 0.00, -0.00, -1.00, 208.6, 170.8)">o</text><text xml:space="preserve" font-family="Helvetica,Helvetica" font-size="36.0" fill="#CACACA" transform="matrix(1.00, 0.00, -0.00, -1.00, 228.6, 170.8)">p</text><text xml:space="preserve" font-family="Helvetica,Helvetica" font-size="36.0" fill="#CACACA" transform="matrix(1.00, 0.00, -0.00, -1.00, 248.7, 170.8)">e</text><text xml:space="preserve" font-family="Helvetica,Helvetica" font-size="36.0" fill="#CACACA" transform="matrix(1.00, 0.00, -0.00, -1.00, 268.7, 170.8)">r</text><text xml:space="preserve" font-family="Helvetica,Helvetica" font-size="36.0" fill="#CACACA" transform="matrix(1.00, 0.00, -0.00, -1.00, 278.7, 170.8)">,</text><text xml:space="preserve" font-family="Helvetica,Helvetica" font-size="36.0" fill="#CACACA" transform="matrix(1.00, 0.00, -0.00, -1.00, 288.7, 170.8)"> </text><text xml:space="preserve" font-family="Helvetica,Helvetica" font-size="36.0" fill="#CACACA" transform="matrix(1.00, 0.00, -0.00, -1.00, 298.7, 170.8)">I</text><text xml:space="preserve" font-family="Helvetica,Helvetica" font-size="36.0" fill="#CACACA" transform="matrix(1.00, 0.00, -0.00, -1.00, 308.7, 170.8)">n</text><text xml:space="preserve" font-family="Helvetica,Helvetica" font-size="36.0" fill="#CACACA" transform="matrix(1.00, 0.00, -0.00, -1.00, 328.7, 170.8)">t</text><text xml:space="preserve" font-family="Helvetica,Helvetica" font-size="36.0" fill="#CACACA" transform="matrix(1.00, 0.00, -0.00, -1.00, 338.7, 170.8)">e</text><text xml:space="preserve" font-family="Helvetica,Helvetica" font-size="36.0" fill="#CACACA" transform="matrix(1.00, 0.00, -0.00, -1.00, 358.7, 170.8)">r</text><text xml:space="preserve" font-family="Helvetica,Helvetica" font-size="36.0" fill="#CACACA" transform="matrix(1.00, 0.00, -0.00, -1.00, 370.7, 170.8)">a</text><text xml:space="preserve" font-family="Helvetica,Helvetica" font-size="36.0" fill="#CACACA" transform="matrix(1.00, 0.00, -0.00, -1.00, 390.8, 170.8)">c</text><text xml:space="preserve" font-family="Helvetica,Helvetica" font-size="36.0" fill="#CACACA" transform="matrix(1.00, 0.00, -0.00, -1.00, 408.8, 170.8)">t</text><text xml:space="preserve" font-family="Helvetica,Helvetica" font-size="36.0" fill="#CACACA" transform="matrix(1.00, 0.00, -0.00, -1.00, 418.8, 170.8)">i</text><text xml:space="preserve" font-family="Helvetica,Helvetica" font-size="36.0" fill="#CACACA" transform="matrix(1.00, 0.00, -0.00, -1.00, 426.8, 170.8)">v</text><text xml:space="preserve" font-family="Helvetica,Helvetica" font-size="36.0" fill="#CACACA" transform="matrix(1.00, 0.00, -0.00, -1.00, 444.8, 170.8)">e</text><text xml:space="preserve" font-family="Helvetica,Helvetica" font-size="36.0" fill="#CACACA" transform="matrix(1.00, 0.00, -0.00, -1.00, 464.8, 170.8)"> </text><text xml:space="preserve" font-family="Helvetica,Helvetica" font-size="36.0" fill="#CACACA" transform="matrix(1.00, 0.00, -0.00, -1.00, 472.8, 170.8)">A</text><text xml:space="preserve" font-family="Helvetica,Helvetica" font-size="36.0" fill="#CACACA" transform="matrix(1.00, 0.00, -0.00, -1.00, 496.8, 170.8)">p</text><text xml:space="preserve" font-family="Helvetica,Helvetica" font-size="36.0" fill="#CACACA" transform="matrix(1.00, 0.00, -0.00, -1.00, 516.9, 170.8)">p</text><text xml:space="preserve" font-family="Helvetica,Helvetica" font-size="36.0" fill="#CACACA" transform="matrix(1.00, 0.00, -0.00, -1.00, 536.9, 170.8)">l</text><text xml:space="preserve" font-family="Helvetica,Helvetica" font-size="36.0" fill="#CACACA" transform="matrix(1.00, 0.00, -0.00, -1.00, 544.9, 170.8)">i</text><text xml:space="preserve" font-family="Helvetica,Helvetica" font-size="36.0" fill="#CACACA" transform="matrix(1.00, 0.00, -0.00, -1.00, 552.9, 170.8)">c</text><text xml:space="preserve" font-family="Helvetica,Helvetica" font-size="36.0" fill="#CACACA" transform="matrix(1.00, 0.00, -0.00, -1.00, 570.9, 170.8)">a</text><text xml:space="preserve" font-family="Helvetica,Helvetica" font-size="36.0" fill="#CACACA" transform="matrix(1.00, 0.00, -0.00, -1.00, 590.9, 170.8)">t</text><text xml:space="preserve" font-family="Helvetica,Helvetica" font-size="36.0" fill="#CACACA" transform="matrix(1.00, 0.00, -0.00, -1.00, 600.9, 170.8)">i</text><text xml:space="preserve" font-family="Helvetica,Helvetica" font-size="36.0" fill="#CACACA" transform="matrix(1.00, 0.00, -0.00, -1.00, 608.9, 170.8)">o</text><text xml:space="preserve" font-family="Helvetica,Helvetica" font-size="36.0" fill="#CACACA" transform="matrix(1.00, 0.00, -0.00, -1.00, 629.0, 170.8)">n</text><text xml:space="preserve" font-family="Helvetica,Helvetica" font-size="36.0" fill="#CACACA" transform="matrix(1.00, 0.00, -0.00, -1.00, 649.0, 170.8)">s</text><text xml:space="preserve" font-family="Helvetica,Helvetica" font-size="36.0" fill="#CACACA" transform="matrix(1.00, 0.00, -0.00, -1.00, 116.5, 103.8)">U</text><text xml:space="preserve" font-family="Helvetica,Helvetica" font-size="36.0" fill="#CACACA" transform="matrix(1.00, 0.00, -0.00, -1.00, 142.5, 103.8)">S</text><text xml:space="preserve" font-family="Helvetica,Helvetica" font-size="36.0" fill="#CACACA" transform="matrix(1.00, 0.00, -0.00, -1.00, 166.6, 103.8)">A</text><text xml:space="preserve" font-family="Helvetica,Helvetica" font-size="36.0" fill="#CACACA" transform="matrix(1.00, 0.00, -0.00, -1.00, 188.6, 103.8)"> </text><text xml:space="preserve" font-family="Helvetica,Helvetica" font-size="36.0" fill="#CACACA" transform="matrix(1.00, 0.00, -0.00, -1.00, 198.0, 103.8)">T</text><text xml:space="preserve" font-family="Helvetica,Helvetica" font-size="36.0" fill="#CACACA" transform="matrix(1.00, 0.00, -0.00, -1.00, 219.3, 103.8)">O</text><text xml:space="preserve" font-family="Helvetica,Helvetica" font-size="36.0" fill="#CACACA" transform="matrix(1.00, 0.00, -0.00, -1.00, 247.3, 103.8)">D</text><text xml:space="preserve" font-family="Helvetica,Helvetica" font-size="36.0" fill="#CACACA" transform="matrix(1.00, 0.00, -0.00, -1.00, 273.3, 103.8)">A</text><text xml:space="preserve" font-family="Helvetica,Helvetica" font-size="36.0" fill="#CACACA" transform="matrix(1.00, 0.00, -0.00, -1.00, 294.7, 103.8)">Y</text><text xml:space="preserve" font-family="Helvetica,Helvetica" font-size="36.0" fill="#CACACA" transform="matrix(1.00, 0.00, -0.00, -1.00, 318.7, 103.8)">/</text><text xml:space="preserve" font-family="Helvetica,Helvetica" font-size="36.0" fill="#CACACA" transform="matrix(1.00, 0.00, -0.00, -1.00, 328.7, 103.8)">G</text><text xml:space="preserve" font-family="Helvetica,Helvetica" font-size="36.0" fill="#CACACA" transform="matrix(1.00, 0.00, -0.00, -1.00, 356.7, 103.8)">a</text><text xml:space="preserve" font-family="Helvetica,Helvetica" font-size="36.0" fill="#CACACA" transform="matrix(1.00, 0.00, -0.00, -1.00, 376.7, 103.8)">n</text><text xml:space="preserve" font-family="Helvetica,Helvetica" font-size="36.0" fill="#CACACA" transform="matrix(1.00, 0.00, -0.00, -1.00, 396.7, 103.8)">n</text><text xml:space="preserve" font-family="Helvetica,Helvetica" font-size="36.0" fill="#CACACA" transform="matrix(1.00, 0.00, -0.00, -1.00, 416.8, 103.8)">e</text><text xml:space="preserve" font-family="Helvetica,Helvetica" font-size="36.0" fill="#CACACA" transform="matrix(1.00, 0.00, -0.00, -1.00, 436.8, 103.8)">t</text><text xml:space="preserve" font-family="Helvetica,Helvetica" font-size="36.0" fill="#CACACA" transform="matrix(1.00, 0.00, -0.00, -1.00, 446.8, 103.8)">t</text><text xml:space="preserve" font-family="Helvetica,Helvetica" font-size="36.0" fill="#CACACA" transform="matrix(1.00, 0.00, -0.00, -1.00, 456.8, 103.8)"> </text><text xml:space="preserve" font-family="Helvetica,Helvetica" font-size="36.0" fill="#CACACA" transform="matrix(1.00, 0.00, -0.00, -1.00, 466.8, 103.8)">D</text><text xml:space="preserve" font-family="Helvetica,Helvetica" font-size="36.0" fill="#CACACA" transform="matrix(1.00, 0.00, -0.00, -1.00, 492.8, 103.8)">i</text><text xml:space="preserve" font-family="Helvetica,Helvetica" font-size="36.0" fill="#CACACA" transform="matrix(1.00, 0.00, -0.00, -1.00, 500.8, 103.8)">g</text><text xml:space="preserve" font-family="Helvetica,Helvetica" font-size="36.0" fill="#CACACA" transform="matrix(1.00, 0.00, -0.00, -1.00, 520.8, 103.8)">i</text><text xml:space="preserve" font-family="Helvetica,Helvetica" font-size="36.0" fill="#CACACA" transform="matrix(1.00, 0.00, -0.00, -1.00, 528.8, 103.8)">t</text><text xml:space="preserve" font-family="Helvetica,Helvetica" font-size="36.0" fill="#CACACA" transform="matrix(1.00, 0.00, -0.00, -1.00, 538.8, 103.8)">a</text><text xml:space="preserve" font-family="Helvetica,Helvetica" font-size="36.0" fill="#CACACA" transform="matrix(1.00, 0.00, -0.00, -1.00, 558.8, 103.8)">l</text></g></svg>